<?xml version="1.0" standalone="no"?>
<!DOCTYPE svg PUBLIC "-//W3C//DTD SVG 20010904//EN"
 "http://www.w3.org/TR/2001/REC-SVG-20010904/DTD/svg10.dtd">
<svg version="1.0" xmlns="http://www.w3.org/2000/svg"
 width="1080.000000pt" height="1054.000000pt" viewBox="0 0 1080.000000 1054.000000"
 preserveAspectRatio="xMidYMid meet">

<g transform="translate(0.000000,1054.000000) scale(0.100000,-0.100000)"
fill="#000000" stroke="none">
<path d="M5070 10506 c1194 -273 2111 -824 2793 -1679 588 -737 929 -1664
1033 -2807 34 -383 29 -1041 -12 -1470 -118 -1242 -531 -2264 -1224 -3030 -95
-106 -307 -313 -415 -406 -570 -491 -1319 -856 -2195 -1070 l-175 -43 2963 0
2962 -1 0 5270 0 5270 -2937 -1 -2938 0 145 -33z"/>
<path d="M2210 5260 l0 -3542 648 5 c635 5 791 12 1022 42 1366 182 2198 918
2511 2221 139 581 177 1362 98 2057 -177 1581 -955 2479 -2341 2702 -279 45
-344 48 -1155 52 l-783 5 0 -3542z"/>
</g>
</svg>
